<?xml version="1.0" standalone="no"?>
<!DOCTYPE svg PUBLIC "-//W3C//DTD SVG 20010904//EN"
 "http://www.w3.org/TR/2001/REC-SVG-20010904/DTD/svg10.dtd">
<svg version="1.0" xmlns="http://www.w3.org/2000/svg"
 width="700.000000pt" height="700.000000pt" viewBox="0 0 700.000000 700.000000"
 preserveAspectRatio="xMidYMid meet">
<metadata>
Created by potrace 1.11, written by Peter Selinger 2001-2013
</metadata>
<g transform="translate(0.000000,700.000000) scale(0.100000,-0.100000)"
fill="#000000" stroke="none">
<path d="M2015 5402 c-1416 -710 -1431 -718 -1484 -774 -75 -80 -105 -123
-150 -214 -68 -136 -86 -216 -85 -389 0 -199 29 -305 126 -461 l38 -62 -39
-65 c-96 -157 -125 -265 -125 -462 -1 -126 3 -163 22 -228 41 -143 111 -265
216 -376 l61 -63 1427 -714 c1320 -660 1432 -714 1478 -714 46 0 158 54 1473
711 782 391 1433 721 1445 732 37 34 52 71 52 127 0 100 -65 168 -165 172 -43
2 -152 -51 -1426 -687 l-1379 -690 -1351 675 c-1327 663 -1352 676 -1391 724
-134 168 -156 391 -56 578 17 32 35 58 39 58 5 0 300 -146 657 -324 356 -177
660 -326 675 -330 61 -15 150 32 184 97 32 63 15 155 -39 203 -12 12 -339 180
-725 373 l-702 351 -39 52 c-22 29 -49 71 -60 94 -51 101 -66 247 -37 359 17
62 72 175 86 175 5 0 618 -304 1362 -677 1189 -595 1357 -676 1397 -676 40 0
217 86 1470 712 784 392 1436 723 1448 734 37 34 52 71 52 127 0 56 -15 93
-52 127 -12 11 -663 341 -1445 732 -1353 676 -1426 711 -1475 710 -50 0 -145
-46 -1483 -717z m2183 -275 c22 -17 13 -43 -73 -209 -47 -91 -85 -169 -85
-174 0 -5 70 -58 155 -118 84 -59 161 -117 171 -127 15 -17 15 -20 1 -43 -9
-13 -31 -29 -49 -35 -18 -5 -154 -24 -303 -41 l-270 -31 -167 -167 c-128 -128
-175 -169 -203 -176 -69 -18 -82 -6 -171 161 -44 84 -83 156 -87 159 -3 4
-125 15 -269 25 -145 10 -273 23 -286 29 -18 8 -23 17 -20 38 3 24 29 42 240
162 l237 135 -6 173 c-6 169 -6 173 16 196 44 47 72 44 324 -40 l232 -77 275
91 c271 90 303 97 338 69z"/>
<path d="M6270 3674 c-8 -3 -635 -314 -1392 -692 l-1377 -687 -66 33 c-78 38
-139 42 -194 11 -79 -44 -113 -147 -73 -225 27 -54 41 -64 172 -130 89 -44
125 -57 160 -57 40 0 218 86 1470 712 784 392 1436 723 1448 734 13 12 30 34
38 49 18 35 18 121 -1 157 -18 36 -69 80 -101 86 -53 11 -70 13 -84 9z"/>
<path d="M2402 3197 l-22 -23 0 -593 0 -592 25 -24 c13 -14 32 -25 41 -25 9 0
68 27 130 60 l113 60 73 -106 c168 -246 170 -249 209 -252 26 -2 40 3 55 19
18 20 19 42 22 583 2 386 0 573 -8 599 -11 37 -15 39 -290 177 -154 77 -290
140 -303 140 -13 0 -33 -10 -45 -23z"/>
</g>
</svg>
